<svg width="36" height="35" viewBox="0 0 36 35" fill="none" xmlns="http://www.w3.org/2000/svg">
<path d="M17.0604 31.8084C25.4115 31.8084 32.1814 25.0385 32.1814 16.6874C32.1814 8.3363 25.4115 1.56641 17.0604 1.56641C8.70935 1.56641 1.93945 8.3363 1.93945 16.6874C1.93945 25.0385 8.70935 31.8084 17.0604 31.8084Z" stroke="#9D1C10" stroke-width="1.68" stroke-linecap="round" stroke-linejoin="round"/>
<path d="M27.75 27.3789L33.806 33.4349" stroke="#9D1C10" stroke-width="1.68" stroke-linecap="round" stroke-linejoin="round"/>
<path d="M17.0598 16.6743C19.4929 16.6743 21.4653 14.7019 21.4653 12.2688C21.4653 9.8357 19.4929 7.86328 17.0598 7.86328C14.6267 7.86328 12.6543 9.8357 12.6543 12.2688C12.6543 14.7019 14.6267 16.6743 17.0598 16.6743Z" stroke="#9D1C10" stroke-width="1.68" stroke-linecap="round" stroke-linejoin="round"/>
<path d="M8.98633 23.9379C10.1417 19.3419 13.3157 16.6758 17.061 16.6758C20.8063 16.6758 23.9804 19.3419 25.1357 23.9379" stroke="#9D1C10" stroke-width="1.68" stroke-linecap="round" stroke-linejoin="round"/>
</svg>
