<svg width="21" height="21" viewBox="0 0 21 21" fill="none" xmlns="http://www.w3.org/2000/svg">
<path d="M10.4671 5.59773C7.62937 5.59773 5.34047 7.88663 5.34047 10.7243C5.34047 13.562 7.62937 15.8509 10.4671 15.8509C13.3048 15.8509 15.5937 13.562 15.5937 10.7243C15.5937 7.88663 13.3048 5.59773 10.4671 5.59773ZM10.4671 14.0573C8.63328 14.0573 7.13411 12.5626 7.13411 10.7243C7.13411 8.88607 8.62881 7.39137 10.4671 7.39137C12.3053 7.39137 13.8 8.88607 13.8 10.7243C13.8 12.5626 12.3009 14.0573 10.4671 14.0573ZM16.9991 5.38802C16.9991 6.05283 16.4637 6.58379 15.8034 6.58379C15.1386 6.58379 14.6076 6.04837 14.6076 5.38802C14.6076 4.72768 15.143 4.19226 15.8034 4.19226C16.4637 4.19226 16.9991 4.72768 16.9991 5.38802ZM20.3946 6.60163C20.3187 4.99985 19.9529 3.581 18.7794 2.41201C17.6104 1.24302 16.1916 0.877148 14.5898 0.796836C12.9389 0.703138 7.99078 0.703138 6.33991 0.796836C4.74259 0.872686 3.32374 1.23855 2.15029 2.40754C0.976835 3.57653 0.615429 4.99539 0.535117 6.59717C0.441419 8.24804 0.441419 13.1962 0.535117 14.847C0.610968 16.4488 0.976835 17.8677 2.15029 19.0367C3.32374 20.2056 4.73813 20.5715 6.33991 20.6518C7.99078 20.7455 12.9389 20.7455 14.5898 20.6518C16.1916 20.576 17.6104 20.2101 18.7794 19.0367C19.9484 17.8677 20.3143 16.4488 20.3946 14.847C20.4883 13.1962 20.4883 8.2525 20.3946 6.60163ZM18.2618 16.6184C17.9138 17.4929 17.2401 18.1666 16.3611 18.5191C15.0449 19.0411 11.9216 18.9207 10.4671 18.9207C9.01253 18.9207 5.88481 19.0367 4.57304 18.5191C3.69853 18.1711 3.0248 17.4973 2.67232 16.6184C2.15029 15.3021 2.27076 12.1789 2.27076 10.7243C2.27076 9.26979 2.15475 6.14207 2.67232 4.8303C3.02034 3.95579 3.69407 3.28206 4.57304 2.92957C5.88927 2.40754 9.01253 2.52801 10.4671 2.52801C11.9216 2.52801 15.0493 2.41201 16.3611 2.92957C17.2356 3.27759 17.9094 3.95133 18.2618 4.8303C18.7839 6.14653 18.6634 9.26979 18.6634 10.7243C18.6634 12.1789 18.7839 15.3066 18.2618 16.6184Z" fill="#3A3A3A"/>
</svg>
